<mxfile host="app.diagrams.net" modified="2020-08-08T15:56:44.214Z" agent="5.0 (X11)" etag="JILKgAGK4I3xZnC8E32f" version="13.6.0" type="github">
  <diagram id="lKYPAJUGjYp6lhN6peeQ" name="Page-1">
    <mxGraphModel dx="395" dy="221" grid="1" gridSize="10" guides="1" tooltips="1" connect="1" arrows="1" fold="1" page="1" pageScale="1" pageWidth="1100" pageHeight="850" math="0" shadow="0">
      <root>
        <mxCell id="0" />
        <mxCell id="1" parent="0" />
        <mxCell id="fzMLCe2CSt6lasL6xWLD-75" value="" style="group" vertex="1" connectable="0" parent="1">
          <mxGeometry x="170" y="203" width="710" height="445" as="geometry" />
        </mxCell>
        <mxCell id="fzMLCe2CSt6lasL6xWLD-45" value="" style="rounded=0;whiteSpace=wrap;html=1;strokeColor=#666666;fillColor=#f5f5f5;fontColor=#333333;" vertex="1" parent="fzMLCe2CSt6lasL6xWLD-75">
          <mxGeometry y="100" width="710" height="300" as="geometry" />
        </mxCell>
        <mxCell id="fzMLCe2CSt6lasL6xWLD-44" value="" style="rounded=0;whiteSpace=wrap;html=1;strokeColor=#666666;fillColor=#f5f5f5;fontColor=#333333;" vertex="1" parent="fzMLCe2CSt6lasL6xWLD-75">
          <mxGeometry width="710" height="90" as="geometry" />
        </mxCell>
        <mxCell id="1fammQ8xEcBehh22gv-o-15" value="" style="group" parent="fzMLCe2CSt6lasL6xWLD-75" vertex="1" connectable="0">
          <mxGeometry x="90" y="200" width="80" height="110" as="geometry" />
        </mxCell>
        <mxCell id="1fammQ8xEcBehh22gv-o-14" value="" style="group" parent="1fammQ8xEcBehh22gv-o-15" vertex="1" connectable="0">
          <mxGeometry width="80" height="110" as="geometry" />
        </mxCell>
        <mxCell id="1fammQ8xEcBehh22gv-o-10" value="" style="rounded=0;whiteSpace=wrap;html=1;dashed=1;dashPattern=1 4;strokeColor=#003366;fillColor=#ffffff;" parent="1fammQ8xEcBehh22gv-o-14" vertex="1">
          <mxGeometry width="80" height="110" as="geometry" />
        </mxCell>
        <mxCell id="1fammQ8xEcBehh22gv-o-12" style="edgeStyle=orthogonalEdgeStyle;rounded=0;orthogonalLoop=1;jettySize=auto;html=1;entryX=0.5;entryY=0;entryDx=0;entryDy=0;endArrow=none;endFill=0;strokeWidth=2;" parent="1fammQ8xEcBehh22gv-o-14" source="1fammQ8xEcBehh22gv-o-1" target="1fammQ8xEcBehh22gv-o-5" edge="1">
          <mxGeometry relative="1" as="geometry" />
        </mxCell>
        <mxCell id="1fammQ8xEcBehh22gv-o-1" value="" style="rounded=0;whiteSpace=wrap;html=1;strokeColor=#432D57;fillColor=#76608a;fontColor=#ffffff;" parent="1fammQ8xEcBehh22gv-o-14" vertex="1">
          <mxGeometry x="10" y="20" width="60" height="10" as="geometry" />
        </mxCell>
        <mxCell id="1fammQ8xEcBehh22gv-o-5" value="" style="ellipse;whiteSpace=wrap;html=1;aspect=fixed;rounded=1;strokeColor=#2D7600;fillColor=#60a917;fontColor=#ffffff;" parent="1fammQ8xEcBehh22gv-o-14" vertex="1">
          <mxGeometry x="15" y="46" width="50" height="50" as="geometry" />
        </mxCell>
        <mxCell id="1fammQ8xEcBehh22gv-o-16" value="" style="group" parent="fzMLCe2CSt6lasL6xWLD-75" vertex="1" connectable="0">
          <mxGeometry x="550" y="200" width="116" height="110" as="geometry" />
        </mxCell>
        <mxCell id="1fammQ8xEcBehh22gv-o-17" value="" style="group" parent="1fammQ8xEcBehh22gv-o-16" vertex="1" connectable="0">
          <mxGeometry width="116" height="110" as="geometry" />
        </mxCell>
        <mxCell id="1fammQ8xEcBehh22gv-o-18" value="" style="group" parent="1fammQ8xEcBehh22gv-o-17" vertex="1" connectable="0">
          <mxGeometry width="116" height="110" as="geometry" />
        </mxCell>
        <mxCell id="1fammQ8xEcBehh22gv-o-19" value="" style="rounded=0;whiteSpace=wrap;html=1;dashed=1;dashPattern=1 4;strokeColor=#003366;fillColor=#ffffff;" parent="1fammQ8xEcBehh22gv-o-18" vertex="1">
          <mxGeometry width="80" height="110" as="geometry" />
        </mxCell>
        <mxCell id="1fammQ8xEcBehh22gv-o-20" style="edgeStyle=orthogonalEdgeStyle;rounded=0;orthogonalLoop=1;jettySize=auto;html=1;entryX=0.5;entryY=0;entryDx=0;entryDy=0;endArrow=none;endFill=0;strokeWidth=2;" parent="1fammQ8xEcBehh22gv-o-18" source="1fammQ8xEcBehh22gv-o-21" target="1fammQ8xEcBehh22gv-o-22" edge="1">
          <mxGeometry relative="1" as="geometry" />
        </mxCell>
        <mxCell id="1fammQ8xEcBehh22gv-o-21" value="" style="rounded=0;whiteSpace=wrap;html=1;strokeColor=#432D57;fillColor=#76608a;fontColor=#ffffff;" parent="1fammQ8xEcBehh22gv-o-18" vertex="1">
          <mxGeometry x="10" y="20" width="60" height="10" as="geometry" />
        </mxCell>
        <mxCell id="1fammQ8xEcBehh22gv-o-22" value="" style="ellipse;whiteSpace=wrap;html=1;aspect=fixed;rounded=1;strokeColor=#B20000;fillColor=#e51400;fontColor=#ffffff;" parent="1fammQ8xEcBehh22gv-o-18" vertex="1">
          <mxGeometry x="15" y="46" width="50" height="50" as="geometry" />
        </mxCell>
        <mxCell id="1fammQ8xEcBehh22gv-o-23" value="" style="group" parent="fzMLCe2CSt6lasL6xWLD-75" vertex="1" connectable="0">
          <mxGeometry x="270" y="280" width="80" height="110" as="geometry" />
        </mxCell>
        <mxCell id="1fammQ8xEcBehh22gv-o-24" value="" style="group" parent="1fammQ8xEcBehh22gv-o-23" vertex="1" connectable="0">
          <mxGeometry width="80" height="110" as="geometry" />
        </mxCell>
        <mxCell id="1fammQ8xEcBehh22gv-o-25" value="" style="group" parent="1fammQ8xEcBehh22gv-o-24" vertex="1" connectable="0">
          <mxGeometry width="80" height="110" as="geometry" />
        </mxCell>
        <mxCell id="1fammQ8xEcBehh22gv-o-26" value="" style="rounded=0;whiteSpace=wrap;html=1;dashed=1;dashPattern=1 4;strokeColor=#003366;fillColor=#ffffff;" parent="1fammQ8xEcBehh22gv-o-25" vertex="1">
          <mxGeometry width="80" height="110" as="geometry" />
        </mxCell>
        <mxCell id="1fammQ8xEcBehh22gv-o-27" style="edgeStyle=orthogonalEdgeStyle;rounded=0;orthogonalLoop=1;jettySize=auto;html=1;entryX=0.5;entryY=0;entryDx=0;entryDy=0;endArrow=none;endFill=0;strokeWidth=2;" parent="1fammQ8xEcBehh22gv-o-25" source="1fammQ8xEcBehh22gv-o-28" target="1fammQ8xEcBehh22gv-o-29" edge="1">
          <mxGeometry relative="1" as="geometry" />
        </mxCell>
        <mxCell id="1fammQ8xEcBehh22gv-o-28" value="" style="rounded=0;whiteSpace=wrap;html=1;strokeColor=#432D57;fillColor=#76608a;fontColor=#ffffff;" parent="1fammQ8xEcBehh22gv-o-25" vertex="1">
          <mxGeometry x="10" y="20" width="60" height="10" as="geometry" />
        </mxCell>
        <mxCell id="1fammQ8xEcBehh22gv-o-29" value="" style="ellipse;whiteSpace=wrap;html=1;aspect=fixed;rounded=1;strokeColor=#3700CC;fillColor=#6a00ff;fontColor=#ffffff;" parent="1fammQ8xEcBehh22gv-o-25" vertex="1">
          <mxGeometry x="15" y="46" width="50" height="50" as="geometry" />
        </mxCell>
        <mxCell id="1fammQ8xEcBehh22gv-o-30" value="" style="group" parent="fzMLCe2CSt6lasL6xWLD-75" vertex="1" connectable="0">
          <mxGeometry x="350" y="140" width="80" height="110" as="geometry" />
        </mxCell>
        <mxCell id="1fammQ8xEcBehh22gv-o-31" value="" style="group" parent="1fammQ8xEcBehh22gv-o-30" vertex="1" connectable="0">
          <mxGeometry width="80" height="110" as="geometry" />
        </mxCell>
        <mxCell id="1fammQ8xEcBehh22gv-o-32" value="" style="group" parent="1fammQ8xEcBehh22gv-o-31" vertex="1" connectable="0">
          <mxGeometry width="80" height="110" as="geometry" />
        </mxCell>
        <mxCell id="1fammQ8xEcBehh22gv-o-33" value="" style="rounded=0;whiteSpace=wrap;html=1;dashed=1;dashPattern=1 4;strokeColor=#003366;fillColor=#ffffff;" parent="1fammQ8xEcBehh22gv-o-32" vertex="1">
          <mxGeometry width="80" height="110" as="geometry" />
        </mxCell>
        <mxCell id="1fammQ8xEcBehh22gv-o-34" style="edgeStyle=orthogonalEdgeStyle;rounded=0;orthogonalLoop=1;jettySize=auto;html=1;entryX=0.5;entryY=0;entryDx=0;entryDy=0;endArrow=none;endFill=0;strokeWidth=2;" parent="1fammQ8xEcBehh22gv-o-32" source="1fammQ8xEcBehh22gv-o-35" target="1fammQ8xEcBehh22gv-o-36" edge="1">
          <mxGeometry relative="1" as="geometry" />
        </mxCell>
        <mxCell id="1fammQ8xEcBehh22gv-o-35" value="" style="rounded=0;whiteSpace=wrap;html=1;strokeColor=#432D57;fillColor=#76608a;fontColor=#ffffff;" parent="1fammQ8xEcBehh22gv-o-32" vertex="1">
          <mxGeometry x="10" y="20" width="60" height="10" as="geometry" />
        </mxCell>
        <mxCell id="1fammQ8xEcBehh22gv-o-36" value="" style="ellipse;whiteSpace=wrap;html=1;aspect=fixed;rounded=1;strokeColor=#B09500;fillColor=#e3c800;fontColor=#ffffff;" parent="1fammQ8xEcBehh22gv-o-32" vertex="1">
          <mxGeometry x="15" y="46" width="50" height="50" as="geometry" />
        </mxCell>
        <mxCell id="fzMLCe2CSt6lasL6xWLD-1" style="rounded=0;orthogonalLoop=1;jettySize=auto;html=1;exitX=1;exitY=0.5;exitDx=0;exitDy=0;entryX=0;entryY=0.5;entryDx=0;entryDy=0;startArrow=none;startFill=0;endArrow=none;endFill=0;strokeWidth=2;fillColor=#1ba1e2;strokeColor=#006EAF;" edge="1" parent="fzMLCe2CSt6lasL6xWLD-75" source="1fammQ8xEcBehh22gv-o-1" target="1fammQ8xEcBehh22gv-o-35">
          <mxGeometry relative="1" as="geometry" />
        </mxCell>
        <mxCell id="fzMLCe2CSt6lasL6xWLD-2" style="rounded=0;orthogonalLoop=1;jettySize=auto;html=1;entryX=0;entryY=0.5;entryDx=0;entryDy=0;startArrow=none;startFill=0;endArrow=none;endFill=0;exitX=1;exitY=0.5;exitDx=0;exitDy=0;strokeWidth=2;fillColor=#1ba1e2;strokeColor=#006EAF;" edge="1" parent="fzMLCe2CSt6lasL6xWLD-75" source="1fammQ8xEcBehh22gv-o-1" target="1fammQ8xEcBehh22gv-o-28">
          <mxGeometry relative="1" as="geometry" />
        </mxCell>
        <mxCell id="fzMLCe2CSt6lasL6xWLD-10" style="rounded=0;orthogonalLoop=1;jettySize=auto;html=1;entryX=0;entryY=0.5;entryDx=0;entryDy=0;startArrow=none;startFill=0;endArrow=none;endFill=0;strokeWidth=2;fillColor=#1ba1e2;strokeColor=#006EAF;exitX=1;exitY=0.5;exitDx=0;exitDy=0;" edge="1" parent="fzMLCe2CSt6lasL6xWLD-75" source="1fammQ8xEcBehh22gv-o-28" target="1fammQ8xEcBehh22gv-o-21">
          <mxGeometry relative="1" as="geometry" />
        </mxCell>
        <mxCell id="fzMLCe2CSt6lasL6xWLD-11" style="rounded=0;orthogonalLoop=1;jettySize=auto;html=1;exitX=1;exitY=0.5;exitDx=0;exitDy=0;entryX=0;entryY=0.5;entryDx=0;entryDy=0;startArrow=none;startFill=0;endArrow=none;endFill=0;strokeWidth=2;fillColor=#1ba1e2;strokeColor=#006EAF;" edge="1" parent="fzMLCe2CSt6lasL6xWLD-75" source="1fammQ8xEcBehh22gv-o-35" target="1fammQ8xEcBehh22gv-o-21">
          <mxGeometry relative="1" as="geometry" />
        </mxCell>
        <mxCell id="fzMLCe2CSt6lasL6xWLD-17" style="edgeStyle=none;rounded=0;orthogonalLoop=1;jettySize=auto;html=1;exitX=0.825;exitY=0.5;exitDx=0;exitDy=0;exitPerimeter=0;entryX=0;entryY=0.5;entryDx=0;entryDy=0;startArrow=none;startFill=0;endArrow=none;endFill=0;fontColor=#000000;strokeWidth=2;fillColor=#1ba1e2;strokeColor=#006EAF;" edge="1" parent="fzMLCe2CSt6lasL6xWLD-75" source="fzMLCe2CSt6lasL6xWLD-16" target="1fammQ8xEcBehh22gv-o-1">
          <mxGeometry relative="1" as="geometry" />
        </mxCell>
        <mxCell id="fzMLCe2CSt6lasL6xWLD-16" value="&lt;font style=&quot;font-size: 14px&quot;&gt;Ingress&lt;/font&gt;" style="html=1;fillColor=#5184F3;strokeColor=none;verticalAlign=top;labelPosition=center;verticalLabelPosition=bottom;align=center;spacingTop=-6;fontSize=11;fontStyle=1;shape=mxgraph.gcp2.hexIcon;prIcon=traffic_director;rounded=0;" vertex="1" parent="fzMLCe2CSt6lasL6xWLD-75">
          <mxGeometry x="10" y="195.75" width="66" height="58.5" as="geometry" />
        </mxCell>
        <mxCell id="fzMLCe2CSt6lasL6xWLD-15" value="&lt;font style=&quot;font-size: 14px&quot;&gt;Egress&lt;/font&gt;" style="html=1;fillColor=#5184F3;strokeColor=none;verticalAlign=top;labelPosition=center;verticalLabelPosition=bottom;align=center;spacingTop=-6;fontSize=11;fontStyle=1;shape=mxgraph.gcp2.hexIcon;prIcon=traffic_director;rounded=0;" vertex="1" parent="fzMLCe2CSt6lasL6xWLD-75">
          <mxGeometry x="644" y="195.75" width="66" height="58.5" as="geometry" />
        </mxCell>
        <mxCell id="fzMLCe2CSt6lasL6xWLD-18" style="edgeStyle=none;rounded=0;orthogonalLoop=1;jettySize=auto;html=1;entryX=0.175;entryY=0.5;entryDx=0;entryDy=0;entryPerimeter=0;startArrow=none;startFill=0;endArrow=none;endFill=0;fontColor=#000000;strokeWidth=2;fillColor=#1ba1e2;strokeColor=#006EAF;" edge="1" parent="fzMLCe2CSt6lasL6xWLD-75" source="1fammQ8xEcBehh22gv-o-21" target="fzMLCe2CSt6lasL6xWLD-15">
          <mxGeometry relative="1" as="geometry" />
        </mxCell>
        <mxCell id="fzMLCe2CSt6lasL6xWLD-26" style="edgeStyle=orthogonalEdgeStyle;rounded=0;orthogonalLoop=1;jettySize=auto;html=1;entryX=0.5;entryY=0;entryDx=0;entryDy=0;startArrow=none;startFill=0;endArrow=classic;endFill=1;strokeWidth=2;fontColor=#000000;dashed=1;fillColor=#e51400;strokeColor=#CC6600;" edge="1" parent="fzMLCe2CSt6lasL6xWLD-75" source="fzMLCe2CSt6lasL6xWLD-19" target="1fammQ8xEcBehh22gv-o-1">
          <mxGeometry relative="1" as="geometry">
            <Array as="points">
              <mxPoint x="130" y="100" />
              <mxPoint x="130" y="100" />
            </Array>
          </mxGeometry>
        </mxCell>
        <mxCell id="fzMLCe2CSt6lasL6xWLD-28" style="edgeStyle=orthogonalEdgeStyle;rounded=0;orthogonalLoop=1;jettySize=auto;html=1;entryX=0.55;entryY=0.12;entryDx=0;entryDy=0;entryPerimeter=0;startArrow=none;startFill=0;endArrow=classic;endFill=1;strokeWidth=2;fontColor=#000000;dashed=1;fillColor=#e51400;strokeColor=#CC6600;" edge="1" parent="fzMLCe2CSt6lasL6xWLD-75" source="fzMLCe2CSt6lasL6xWLD-19" target="1fammQ8xEcBehh22gv-o-35">
          <mxGeometry relative="1" as="geometry">
            <Array as="points">
              <mxPoint x="130" y="130" />
              <mxPoint x="393" y="130" />
            </Array>
          </mxGeometry>
        </mxCell>
        <mxCell id="fzMLCe2CSt6lasL6xWLD-29" style="edgeStyle=orthogonalEdgeStyle;rounded=0;orthogonalLoop=1;jettySize=auto;html=1;entryX=0.5;entryY=0;entryDx=0;entryDy=0;startArrow=none;startFill=0;endArrow=classic;endFill=1;strokeWidth=2;fontColor=#000000;dashed=1;fillColor=#e51400;strokeColor=#CC6600;" edge="1" parent="fzMLCe2CSt6lasL6xWLD-75" source="fzMLCe2CSt6lasL6xWLD-19" target="1fammQ8xEcBehh22gv-o-28">
          <mxGeometry relative="1" as="geometry">
            <Array as="points">
              <mxPoint x="130" y="130" />
              <mxPoint x="310" y="130" />
            </Array>
          </mxGeometry>
        </mxCell>
        <mxCell id="fzMLCe2CSt6lasL6xWLD-37" style="edgeStyle=orthogonalEdgeStyle;rounded=0;orthogonalLoop=1;jettySize=auto;html=1;entryX=0.75;entryY=0;entryDx=0;entryDy=0;dashed=1;startArrow=none;startFill=0;endArrow=classic;endFill=1;strokeWidth=2;fontColor=#000000;strokeColor=#CC6600;" edge="1" parent="fzMLCe2CSt6lasL6xWLD-75" source="fzMLCe2CSt6lasL6xWLD-19" target="1fammQ8xEcBehh22gv-o-21">
          <mxGeometry relative="1" as="geometry">
            <Array as="points">
              <mxPoint x="130" y="130" />
              <mxPoint x="605" y="130" />
            </Array>
          </mxGeometry>
        </mxCell>
        <mxCell id="fzMLCe2CSt6lasL6xWLD-19" value="&lt;b style=&quot;font-size: 14px&quot;&gt;&lt;font style=&quot;font-size: 14px&quot;&gt;Config &amp;amp; Discovery&lt;/font&gt;&lt;br&gt;&lt;/b&gt;" style="rounded=1;whiteSpace=wrap;html=1;fillColor=#fad7ac;strokeColor=#b46504;" vertex="1" parent="fzMLCe2CSt6lasL6xWLD-75">
          <mxGeometry x="56" y="20" width="154" height="40" as="geometry" />
        </mxCell>
        <mxCell id="fzMLCe2CSt6lasL6xWLD-31" style="rounded=0;orthogonalLoop=1;jettySize=auto;html=1;entryX=0.75;entryY=0;entryDx=0;entryDy=0;dashed=1;startArrow=none;startFill=0;endArrow=classic;endFill=1;strokeWidth=2;fontColor=#000000;edgeStyle=orthogonalEdgeStyle;strokeColor=#CC6600;" edge="1" parent="fzMLCe2CSt6lasL6xWLD-75" source="fzMLCe2CSt6lasL6xWLD-20" target="1fammQ8xEcBehh22gv-o-1">
          <mxGeometry relative="1" as="geometry">
            <Array as="points">
              <mxPoint x="260" y="110" />
              <mxPoint x="145" y="110" />
            </Array>
          </mxGeometry>
        </mxCell>
        <mxCell id="fzMLCe2CSt6lasL6xWLD-32" style="edgeStyle=orthogonalEdgeStyle;rounded=0;orthogonalLoop=1;jettySize=auto;html=1;exitX=0.5;exitY=1;exitDx=0;exitDy=0;entryX=0.25;entryY=0;entryDx=0;entryDy=0;dashed=1;startArrow=none;startFill=0;endArrow=classic;endFill=1;strokeWidth=2;fontColor=#000000;strokeColor=#CC6600;" edge="1" parent="fzMLCe2CSt6lasL6xWLD-75" source="fzMLCe2CSt6lasL6xWLD-20" target="1fammQ8xEcBehh22gv-o-35">
          <mxGeometry relative="1" as="geometry" />
        </mxCell>
        <mxCell id="fzMLCe2CSt6lasL6xWLD-20" value="&lt;b&gt;AAA&lt;/b&gt;&lt;b style=&quot;font-size: 14px&quot;&gt;&lt;br&gt;&lt;/b&gt;" style="rounded=1;whiteSpace=wrap;html=1;fillColor=#fad9d5;strokeColor=#ae4132;" vertex="1" parent="fzMLCe2CSt6lasL6xWLD-75">
          <mxGeometry x="230" y="20" width="60" height="40" as="geometry" />
        </mxCell>
        <mxCell id="fzMLCe2CSt6lasL6xWLD-22" value="&lt;b&gt;Policy&lt;/b&gt;&lt;b style=&quot;font-size: 14px&quot;&gt;&lt;br&gt;&lt;/b&gt;" style="rounded=1;whiteSpace=wrap;html=1;fillColor=#b1ddf0;strokeColor=#10739e;" vertex="1" parent="fzMLCe2CSt6lasL6xWLD-75">
          <mxGeometry x="310" y="20" width="60" height="40" as="geometry" />
        </mxCell>
        <mxCell id="fzMLCe2CSt6lasL6xWLD-34" style="edgeStyle=none;rounded=0;orthogonalLoop=1;jettySize=auto;html=1;entryX=0.75;entryY=0;entryDx=0;entryDy=0;dashed=1;startArrow=classic;startFill=1;endArrow=none;endFill=0;strokeWidth=2;fontColor=#000000;strokeColor=#006EAF;dashPattern=1 1;fillColor=#1ba1e2;" edge="1" parent="fzMLCe2CSt6lasL6xWLD-75" source="fzMLCe2CSt6lasL6xWLD-23" target="1fammQ8xEcBehh22gv-o-35">
          <mxGeometry relative="1" as="geometry" />
        </mxCell>
        <mxCell id="fzMLCe2CSt6lasL6xWLD-36" style="edgeStyle=none;rounded=0;orthogonalLoop=1;jettySize=auto;html=1;exitX=0.75;exitY=1;exitDx=0;exitDy=0;dashed=1;startArrow=classic;startFill=1;endArrow=none;endFill=0;strokeWidth=2;fontColor=#000000;entryX=0.25;entryY=0;entryDx=0;entryDy=0;strokeColor=#006EAF;dashPattern=1 1;fillColor=#1ba1e2;" edge="1" parent="fzMLCe2CSt6lasL6xWLD-75" source="fzMLCe2CSt6lasL6xWLD-23" target="1fammQ8xEcBehh22gv-o-21">
          <mxGeometry relative="1" as="geometry">
            <mxPoint x="640" y="170" as="targetPoint" />
          </mxGeometry>
        </mxCell>
        <mxCell id="fzMLCe2CSt6lasL6xWLD-23" value="&lt;b style=&quot;font-size: 14px&quot;&gt;&lt;font style=&quot;font-size: 14px&quot;&gt;Monitoring &amp;amp; Telemetry&lt;/font&gt;&lt;br&gt;&lt;/b&gt;" style="rounded=1;whiteSpace=wrap;html=1;fillColor=#b0e3e6;strokeColor=#0e8088;" vertex="1" parent="fzMLCe2CSt6lasL6xWLD-75">
          <mxGeometry x="390" y="20" width="170" height="40" as="geometry" />
        </mxCell>
        <mxCell id="fzMLCe2CSt6lasL6xWLD-47" value="&lt;font style=&quot;font-size: 14px&quot;&gt;&lt;b&gt;&lt;i&gt;Control Plane&lt;br&gt;&lt;/i&gt;&lt;/b&gt;&lt;/font&gt;" style="text;html=1;align=center;verticalAlign=middle;resizable=0;points=[];autosize=1;fontColor=#4D4D4D;" vertex="1" parent="fzMLCe2CSt6lasL6xWLD-75">
          <mxGeometry x="600" y="70" width="110" height="20" as="geometry" />
        </mxCell>
        <mxCell id="fzMLCe2CSt6lasL6xWLD-48" value="&lt;font style=&quot;font-size: 14px&quot;&gt;&lt;b&gt;&lt;i&gt;Data Plane&lt;br&gt;&lt;/i&gt;&lt;/b&gt;&lt;/font&gt;" style="text;html=1;align=center;verticalAlign=middle;resizable=0;points=[];autosize=1;fontColor=#4D4D4D;" vertex="1" parent="fzMLCe2CSt6lasL6xWLD-75">
          <mxGeometry x="620" y="102" width="90" height="20" as="geometry" />
        </mxCell>
        <mxCell id="fzMLCe2CSt6lasL6xWLD-69" value="" style="group" vertex="1" connectable="0" parent="fzMLCe2CSt6lasL6xWLD-75">
          <mxGeometry x="589.0000000000001" y="405" width="120.99999999999989" height="40" as="geometry" />
        </mxCell>
        <mxCell id="fzMLCe2CSt6lasL6xWLD-54" style="rounded=0;orthogonalLoop=1;jettySize=auto;html=1;startArrow=none;startFill=0;endArrow=none;endFill=0;exitX=1;exitY=0.5;exitDx=0;exitDy=0;strokeWidth=2;fillColor=#1ba1e2;strokeColor=#006EAF;dashed=1;dashPattern=1 1;" edge="1" parent="fzMLCe2CSt6lasL6xWLD-69">
          <mxGeometry relative="1" as="geometry">
            <mxPoint y="19.860000000000014" as="sourcePoint" />
            <mxPoint x="39.999999999999886" y="19.860000000000014" as="targetPoint" />
          </mxGeometry>
        </mxCell>
        <mxCell id="fzMLCe2CSt6lasL6xWLD-55" value="&lt;div style=&quot;font-size: 14px;&quot;&gt;Out-of-band&lt;/div&gt;&lt;div style=&quot;font-size: 14px;&quot;&gt;Telemetry&lt;/div&gt;" style="text;html=1;align=center;verticalAlign=middle;resizable=0;points=[];autosize=1;fontSize=14;" vertex="1" parent="fzMLCe2CSt6lasL6xWLD-69">
          <mxGeometry x="30.999999999999886" width="90" height="40" as="geometry" />
        </mxCell>
        <mxCell id="fzMLCe2CSt6lasL6xWLD-70" value="" style="group" vertex="1" connectable="0" parent="fzMLCe2CSt6lasL6xWLD-75">
          <mxGeometry x="438.0000000000001" y="405" width="121.99999999999989" height="40" as="geometry" />
        </mxCell>
        <mxCell id="fzMLCe2CSt6lasL6xWLD-53" style="rounded=0;orthogonalLoop=1;jettySize=auto;html=1;startArrow=none;startFill=0;endArrow=none;endFill=0;exitX=1;exitY=0.5;exitDx=0;exitDy=0;strokeWidth=2;fillColor=#fa6800;strokeColor=#C73500;dashed=1;" edge="1" parent="fzMLCe2CSt6lasL6xWLD-70">
          <mxGeometry relative="1" as="geometry">
            <mxPoint x="-3" y="20" as="sourcePoint" />
            <mxPoint x="36.999999999999886" y="20" as="targetPoint" />
          </mxGeometry>
        </mxCell>
        <mxCell id="fzMLCe2CSt6lasL6xWLD-56" value="&lt;div style=&quot;font-size: 14px;&quot;&gt;Control Flow&lt;/div&gt;&lt;div style=&quot;font-size: 14px;&quot;&gt;Processing&lt;/div&gt;" style="text;html=1;align=center;verticalAlign=middle;resizable=0;points=[];autosize=1;fontSize=14;" vertex="1" parent="fzMLCe2CSt6lasL6xWLD-70">
          <mxGeometry x="31.999999999999886" width="90" height="40" as="geometry" />
        </mxCell>
        <mxCell id="fzMLCe2CSt6lasL6xWLD-71" value="" style="group" vertex="1" connectable="0" parent="fzMLCe2CSt6lasL6xWLD-75">
          <mxGeometry x="285" y="405" width="115" height="40" as="geometry" />
        </mxCell>
        <mxCell id="fzMLCe2CSt6lasL6xWLD-52" style="rounded=0;orthogonalLoop=1;jettySize=auto;html=1;startArrow=none;startFill=0;endArrow=none;endFill=0;exitX=1;exitY=0.5;exitDx=0;exitDy=0;strokeWidth=2;fillColor=#1ba1e2;strokeColor=#006EAF;" edge="1" parent="fzMLCe2CSt6lasL6xWLD-71">
          <mxGeometry relative="1" as="geometry">
            <mxPoint y="20" as="sourcePoint" />
            <mxPoint x="40" y="20" as="targetPoint" />
          </mxGeometry>
        </mxCell>
        <mxCell id="fzMLCe2CSt6lasL6xWLD-57" value="&lt;div style=&quot;font-size: 14px;&quot;&gt;Application&lt;/div&gt;&lt;div style=&quot;font-size: 14px;&quot;&gt;Traffic&lt;br style=&quot;font-size: 14px;&quot;&gt;&lt;/div&gt;" style="text;html=1;align=center;verticalAlign=middle;resizable=0;points=[];autosize=1;fontSize=14;" vertex="1" parent="fzMLCe2CSt6lasL6xWLD-71">
          <mxGeometry x="35" width="80" height="40" as="geometry" />
        </mxCell>
        <mxCell id="fzMLCe2CSt6lasL6xWLD-72" value="" style="group" vertex="1" connectable="0" parent="fzMLCe2CSt6lasL6xWLD-75">
          <mxGeometry x="150" y="405" width="100" height="40" as="geometry" />
        </mxCell>
        <mxCell id="fzMLCe2CSt6lasL6xWLD-50" value="" style="rounded=0;whiteSpace=wrap;html=1;strokeColor=#36393d;fillColor=#eeeeee;" vertex="1" parent="fzMLCe2CSt6lasL6xWLD-72">
          <mxGeometry y="15" width="40" height="10" as="geometry" />
        </mxCell>
        <mxCell id="fzMLCe2CSt6lasL6xWLD-65" value="&lt;div style=&quot;font-size: 14px;&quot;&gt;Proxy/&lt;/div&gt;&lt;div style=&quot;font-size: 14px;&quot;&gt;Sidecar&lt;br style=&quot;font-size: 14px;&quot;&gt;&lt;/div&gt;" style="text;html=1;align=center;verticalAlign=middle;resizable=0;points=[];autosize=1;fontSize=14;" vertex="1" parent="fzMLCe2CSt6lasL6xWLD-72">
          <mxGeometry x="40" width="60" height="40" as="geometry" />
        </mxCell>
        <mxCell id="fzMLCe2CSt6lasL6xWLD-73" value="" style="group" vertex="1" connectable="0" parent="fzMLCe2CSt6lasL6xWLD-75">
          <mxGeometry x="30" y="415" width="80" height="20" as="geometry" />
        </mxCell>
        <mxCell id="fzMLCe2CSt6lasL6xWLD-49" value="" style="ellipse;whiteSpace=wrap;html=1;aspect=fixed;rounded=0;strokeColor=#36393d;fillColor=#eeeeee;" vertex="1" parent="fzMLCe2CSt6lasL6xWLD-73">
          <mxGeometry x="3" width="20" height="20" as="geometry" />
        </mxCell>
        <mxCell id="fzMLCe2CSt6lasL6xWLD-66" value="Service" style="text;html=1;align=center;verticalAlign=middle;resizable=0;points=[];autosize=1;fontSize=14;" vertex="1" parent="fzMLCe2CSt6lasL6xWLD-73">
          <mxGeometry x="20" width="60" height="20" as="geometry" />
        </mxCell>
      </root>
    </mxGraphModel>
  </diagram>
</mxfile>
